<?xml version="1.0" standalone="no"?>
<!DOCTYPE svg PUBLIC "-//W3C//DTD SVG 20010904//EN"
 "http://www.w3.org/TR/2001/REC-SVG-20010904/DTD/svg10.dtd">
<svg version="1.0" xmlns="http://www.w3.org/2000/svg"
 width="500.000000pt" height="500.000000pt" viewBox="0 0 500.000000 500.000000"
 preserveAspectRatio="xMidYMid meet">
<metadata>
Created by potrace 1.16, written by Peter Selinger 2001-2019
</metadata>
<g transform="translate(0.000000,500.000000) scale(0.100000,-0.100000)"
fill="#000000" stroke="none">
<path d="M2520 4399 c0 -107 -10 -169 -26 -169 -8 0 -14 -4 -14 -10 0 -5 -13
-10 -28 -10 -23 0 -35 -9 -60 -47 l-31 -48 75 -3 74 -3 0 -61 c0 -89 -16 -136
-49 -140 -23 -3 -26 -8 -29 -46 l-3 -44 -76 4 c-55 2 -77 -1 -80 -9 -4 -10 22
-11 116 -6 l121 6 1 -44 0 -44 13 47 c7 26 18 54 26 62 10 13 10 16 -4 16 -13
0 -16 11 -16 54 0 50 3 57 33 80 42 32 90 52 147 60 39 6 48 11 57 36 13 35
10 36 -123 46 l-92 7 -7 157 c-8 167 -25 241 -25 109z"/>
<path d="M3291 4088 c-1 -28 -2 -28 -68 -27 -38 0 -84 6 -103 13 -78 28 -197
-33 -246 -126 -14 -26 -13 -28 6 -28 14 0 20 7 20 23 0 33 26 64 70 87 45 23
174 28 229 9 30 -10 31 -13 31 -65 0 -30 -4 -54 -9 -54 -5 0 -11 -29 -13 -64
-6 -91 -21 -106 -110 -106 l-68 0 0 -29 c0 -23 -5 -31 -22 -34 -13 -2 14 -5
60 -6 83 -1 139 -17 174 -48 14 -12 18 -31 18 -83 0 -73 -6 -79 -67 -80 -20 0
-23 -5 -23 -38 0 -57 -22 -72 -103 -72 -63 0 -67 -1 -67 -22 0 -13 -3 -34 -7
-47 -6 -23 -7 -23 -106 -16 -65 4 -105 12 -114 21 -8 8 -28 14 -45 14 -19 0
-48 13 -79 36 -48 35 -49 37 -49 90 0 52 2 56 30 68 43 18 19 36 -47 36 -48 0
-54 3 -63 26 -6 14 -10 44 -11 67 -1 36 -2 38 -8 16 -15 -46 -31 -69 -51 -69
-15 0 -20 -7 -20 -26 0 -25 -2 -25 -57 -24 -81 2 -83 2 -83 -15 0 -11 12 -15
45 -15 44 0 45 -1 45 -31 0 -31 0 -31 25 -15 36 24 125 21 159 -5 23 -18 26
-27 26 -83 l0 -62 56 -54 c128 -126 234 -298 275 -446 18 -65 20 -98 17 -223
-3 -136 -5 -150 -31 -203 -36 -73 -119 -150 -195 -179 -35 -13 -89 -24 -139
-27 l-83 -5 0 199 c0 189 1 199 22 221 l21 23 -21 0 c-21 0 -22 5 -25 138 -1
75 -4 -17 -5 -205 -1 -188 -5 -348 -8 -357 -5 -12 -21 -16 -68 -16 -108 0
-211 39 -286 107 -22 19 -40 30 -40 24 0 -17 -105 -14 -120 4 -7 8 -23 15 -36
15 -27 0 -30 7 -48 131 l-12 84 -32 -55 c-17 -30 -35 -69 -38 -86 -16 -86 118
-215 301 -290 269 -110 577 -99 842 31 100 49 202 133 223 184 13 33 9 43 -51
109 -28 30 -37 51 -48 112 -8 41 -16 101 -19 133 l-4 57 62 0 c52 0 68 -5 103
-29 58 -40 121 -107 151 -161 25 -44 26 -44 26 -15 0 17 9 44 20 62 l19 32
-31 3 c-25 2 -35 11 -51 42 -27 52 -47 139 -47 210 l0 58 74 -4 74 -3 -38 41
c-21 23 -48 60 -59 82 -34 66 -71 210 -71 273 l0 59 76 0 76 0 -31 39 c-61 76
-121 256 -121 360 l0 51 81 0 81 0 -31 35 c-41 47 -66 98 -90 182 -13 43 -20
58 -20 41z m-131 -867 c0 -21 7 -52 15 -67 31 -59 11 -179 -33 -203 -12 -6
-49 -11 -84 -11 -61 0 -66 2 -99 38 -59 62 -69 85 -69 156 0 62 1 66 37 95 36
30 41 31 135 31 l98 0 0 -39z"/>
<path d="M1535 3801 c-29 -6 -30 -8 -33 -69 l-3 -62 -54 0 c-44 0 -62 6 -107
35 -62 41 -141 72 -217 87 -126 23 -306 -45 -416 -156 -103 -105 -157 -239
-136 -336 11 -51 50 -143 73 -173 13 -18 15 -18 38 1 14 10 38 22 53 26 l28 7
-21 26 c-18 23 -20 40 -20 180 0 91 4 163 11 175 23 43 61 48 361 47 156 0
316 -4 357 -8 99 -10 113 -26 109 -125 l-3 -71 -77 -3 -78 -3 0 -68 c0 -54 -4
-70 -16 -75 -9 -3 -105 -6 -215 -6 l-199 0 0 -34 c0 -32 2 -34 46 -40 26 -3
164 -6 308 -6 144 0 276 -4 294 -9 l32 -10 0 40 c0 34 3 39 23 39 20 0 19 2
-10 20 -49 30 -76 98 -81 203 l-4 87 49 1 c26 1 40 3 31 6 -9 2 -31 32 -48 65
-26 53 -30 72 -30 140 0 43 -3 77 -7 77 -5 -1 -21 -4 -38 -8z"/>
<path d="M2018 3355 c3 -44 1 -65 -7 -65 -6 0 -11 -7 -11 -15 0 -8 -4 -15 -10
-15 -5 0 -10 -20 -10 -44 0 -34 -4 -46 -17 -49 -15 -4 -15 -5 -2 -6 13 -1 18
-18 24 -83 l7 -81 40 64 c22 35 56 83 75 107 l34 42 -45 0 -46 0 0 76 c0 41 5
84 10 95 8 15 7 19 -5 19 -8 0 -15 5 -15 10 0 6 -6 10 -13 10 -10 0 -12 -16
-9 -65z"/>
<path d="M1820 2930 c0 -35 -3 -40 -23 -40 -12 0 -30 -9 -40 -20 -26 -31 -116
-28 -155 5 -56 47 -105 58 -274 63 l-158 4 0 -50 c0 -70 -15 -82 -99 -82 -39
0 -72 5 -79 12 -7 7 -12 36 -12 65 l0 53 -50 0 -50 0 0 -78 c0 -47 -5 -83 -12
-90 -7 -7 -34 -12 -60 -12 -47 0 -48 -1 -48 -30 0 -30 -1 -30 -55 -30 l-55 0
0 53 c0 61 -5 69 -45 85 -16 7 -54 35 -82 61 -29 27 -53 47 -53 45 0 -17 47
-87 75 -110 32 -27 35 -33 35 -84 -1 -30 -5 -75 -9 -99 -8 -37 -6 -47 9 -60
17 -15 19 -39 20 -296 3 -429 2 -457 -12 -467 -7 -4 198 -8 457 -8 259 0 480
-3 493 -6 l22 -6 0 294 c0 316 4 349 55 439 27 49 110 134 169 173 23 15 53
26 73 26 18 0 35 6 37 13 2 6 17 49 33 95 l31 82 -49 0 c-27 0 -49 3 -49 8 0
4 -9 13 -20 20 -19 11 -20 10 -20 -28z m-432 -265 c8 -3 12 -33 12 -105 l0
-100 -58 0 c-71 0 -89 -15 -94 -80 l-3 -45 -182 -3 -182 -2 -3 -38 -3 -37
-112 -3 -113 -3 0 209 c0 115 2 211 5 213 5 6 715 -1 733 -6z m-11 -491 c22
-6 23 -10 23 -100 l0 -94 -110 0 -110 0 0 -50 c0 -61 -13 -70 -101 -70 -79 0
-99 16 -99 77 l0 43 -50 0 -50 0 0 -60 0 -60 -115 0 -115 0 0 160 0 160 352 0
c193 0 362 -3 375 -6z"/>
<path d="M4731 2408 l-1 -58 -35 0 c-33 0 -35 -2 -35 -32 0 -18 -3 -43 -6 -55
-6 -21 -3 -23 35 -23 l42 0 -3 -72 -3 -73 -46 -3 c-40 -3 -49 -7 -58 -30 -27
-63 -46 -74 -134 -83 -45 -4 -285 -8 -532 -8 -494 -1 -478 -3 -510 59 -18 34
-22 210 -5 210 7 0 7 6 2 18 -5 9 -13 35 -17 57 -9 40 -9 39 -16 -28 -11 -98
-52 -161 -159 -246 -112 -88 -296 -162 -477 -191 l-73 -12 0 -137 0 -138 -97
-6 c-54 -4 -119 -7 -145 -7 -44 0 -48 -2 -48 -25 0 -24 -3 -25 -57 -25 -32 0
-107 7 -168 15 -60 8 -111 15 -112 15 -2 0 -3 -72 -3 -160 l0 -160 -57 0 c-32
0 -65 -5 -73 -11 -12 -9 -12 -10 3 -5 10 3 89 6 175 6 l157 0 -3 145 -3 146
63 -3 63 -3 0 -143 0 -142 85 0 c70 1 93 5 130 25 l45 24 -37 1 -38 0 0 60 0
60 55 0 55 0 0 -55 0 -55 28 7 c15 5 99 8 187 8 143 0 167 -2 220 -23 34 -13
84 -41 113 -62 l52 -40 0 203 c0 203 9 273 36 284 9 3 14 21 14 55 0 108 58
146 238 159 64 5 144 13 177 19 86 14 272 12 384 -4 53 -8 140 -17 194 -21
105 -6 167 -27 187 -64 12 -24 13 -101 1 -134 -11 -27 -28 -35 -160 -72 -155
-43 -254 -95 -344 -179 -33 -31 -45 -36 -88 -36 -47 0 -55 4 -111 55 -34 30
-97 72 -146 96 -72 36 -96 43 -163 47 -67 4 -79 2 -79 -11 0 -8 -3 -22 -6 -31
-5 -14 4 -16 60 -16 104 0 197 -25 269 -73 l62 -42 7 -80 c3 -44 11 -98 17
-120 6 -22 11 -77 11 -122 l0 -83 -63 0 c-48 0 -76 6 -117 27 -60 30 -165 130
-195 186 -11 20 -25 37 -32 37 -7 0 -17 8 -22 18 -8 12 -10 -6 -11 -70 l0 -88
-30 0 -29 0 34 -68 c74 -149 83 -360 21 -513 l-24 -60 107 58 c58 31 135 72
171 90 l65 33 250 0 c285 1 364 8 431 41 106 53 190 171 215 304 8 42 10 174
6 432 l-6 372 25 93 c14 51 45 134 70 183 57 115 72 190 55 282 -7 37 -18 82
-26 98 -13 30 -13 29 -14 -27z m-1861 -1018 l0 -100 -55 0 -55 0 0 100 0 100
55 0 55 0 0 -100z m1537 43 c-9 -121 -83 -282 -167 -363 -69 -68 -185 -120
-268 -120 l-52 0 0 138 c0 123 3 142 24 187 30 65 111 139 189 175 76 34 90
37 195 39 l84 1 -5 -57z"/>
<path d="M1640 1650 l0 -50 -55 0 -55 0 -2 -162 -3 -163 -497 -5 c-273 -3
-500 -8 -504 -12 -4 -5 9 -8 29 -8 34 0 37 -2 37 -30 l0 -30 468 -2 467 -3 0
-110 0 -110 -140 -6 c-77 -3 -148 -9 -157 -13 -9 -4 -26 -23 -37 -42 l-20 -34
-221 0 -220 0 -43 45 c-26 26 -53 45 -65 45 -20 0 -22 -5 -22 -65 l0 -65 -96
0 -95 0 18 -31 c45 -77 158 -145 259 -155 32 -3 185 -8 339 -12 l280 -7 70
-40 c115 -67 347 -174 456 -210 177 -60 387 -97 634 -111 107 -6 130 -11 218
-46 174 -70 261 -72 413 -11 81 32 94 49 17 21 -39 -14 -93 -22 -168 -25 -142
-7 -244 13 -332 64 l-63 37 0 56 c0 50 3 59 33 88 46 44 105 44 196 -1 90 -44
152 -44 242 0 118 58 213 189 213 294 0 51 -48 161 -84 194 -19 18 -20 18 -20
-3 0 -12 -3 -22 -7 -22 -5 0 -8 -46 -8 -103 0 -97 -2 -104 -30 -147 -20 -29
-49 -55 -85 -74 -48 -26 -67 -30 -162 -34 -94 -4 -112 -2 -150 17 -25 11 -58
21 -76 21 -39 0 -45 11 -53 85 l-6 60 -1 -62 -2 -63 -240 0 -240 0 0 -65 0
-66 -67 3 -68 3 -5 195 c-3 107 -7 178 -8 158 l-2 -38 -124 0 -123 0 -7 53
c-3 28 -6 96 -6 149 l0 97 37 7 c20 4 80 4 135 0 l98 -6 -1 32 c0 31 -1 32
-11 11 -9 -20 -19 -23 -63 -23 -61 0 -65 6 -65 108 l0 62 -55 0 -55 0 0 170 0
170 36 0 36 0 -52 35 c-29 19 -54 35 -56 35 -2 0 -4 -22 -4 -50z"/>
<path d="M364 1563 c-4 -32 -7 -170 -8 -308 0 -234 9 -338 33 -383 4 -7 8 158
9 368 2 323 0 380 -12 380 -10 0 -17 -18 -22 -57z"/>
</g>
</svg>
